<?xml version="1.0" encoding="UTF-8"?>
<svg width="24px" height="24px" viewBox="0 0 24 24" version="1.1" xmlns="http://www.w3.org/2000/svg">
    <g stroke="none" stroke-width="1" fill="none" fill-rule="evenodd">
        <path d="M12,2 C17.5228,2 22,6.47715 22,12 C22,17.5228 17.5228,22 12,22 C6.47715,22 2,17.5228 2,12 C2,6.47715 6.47715,2 12,2 Z M12,4 C7.58172,4 4,7.58172 4,12 C4,16.4183 7.58172,20 12,20 C16.4183,20 20,16.4183 20,12 C20,7.58172 16.4183,4 12,4 Z" fill="#4285F4" fill-rule="nonzero"></path>
        <path d="M12,8.5 C13.6568,8.5 15,9.84315 15,11.5 C15,13.1569 13.6568,14.5 12,14.5 C10.3431,14.5 9,13.1569 9,11.5 C9,9.84315 10.3431,8.5 12,8.5 Z" fill="#4285F4"></path>
    </g>
</svg>
