<?xml version="1.0" encoding="UTF-8"?>
<svg width="24px" height="24px" viewBox="0 0 24 24" version="1.1" xmlns="http://www.w3.org/2000/svg">
    <g stroke="none" stroke-width="1" fill="none" fill-rule="evenodd">
        <path d="M9.5,4 C8.11929,4 7,5.11929 7,6.5 C7,7.88071 8.11929,9 9.5,9 L12,9 L12,6.5 C12,5.11929 10.8807,4 9.5,4 Z M9.5,12 L6.5,12 C5.11929,12 4,13.1193 4,14.5 C4,15.8807 5.11929,17 6.5,17 C7.88071,17 9,15.8807 9,14.5 L9,12 L9.5,12 Z M14.5,15 C15.8807,15 17,16.1193 17,17.5 C17,18.8807 15.8807,20 14.5,20 C13.1193,20 12,18.8807 12,17.5 L12,15 L14.5,15 Z M14.5,7 L17.5,7 C18.8807,7 20,5.88071 20,4.5 C20,3.11929 18.8807,2 17.5,2 C16.1193,2 15,3.11929 15,4.5 L15,7 L14.5,7 Z" fill="#E01E5A" fill-rule="nonzero"></path>
        <path d="M4.5,17 C3.11929,17 2,18.1193 2,19.5 C2,20.8807 3.11929,22 4.5,22 C5.88071,22 7,20.8807 7,19.5 L7,17 L4.5,17 Z M19.5,7 C20.8807,7 22,5.88071 22,4.5 C22,3.11929 20.8807,2 19.5,2 C18.1193,2 17,3.11929 17,4.5 L17,7 L19.5,7 Z" fill="#36C5F0" fill-rule="nonzero"></path>
        <path d="M14.5,7 C15.8807,7 17,5.88071 17,4.5 C17,3.11929 15.8807,2 14.5,2 C13.1193,2 12,3.11929 12,4.5 L12,7 L14.5,7 Z M4.5,12 C3.11929,12 2,13.1193 2,14.5 C2,15.8807 3.11929,17 4.5,17 C5.88071,17 7,15.8807 7,14.5 L7,12 L4.5,12 Z" fill="#2EB67D" fill-rule="nonzero"></path>
        <path d="M14.5,22 C15.8807,22 17,20.8807 17,19.5 C17,18.1193 15.8807,17 14.5,17 L12,17 L12,19.5 C12,20.8807 13.1193,22 14.5,22 Z M9.5,17 C8.11929,17 7,18.1193 7,19.5 C7,20.8807 8.11929,22 9.5,22 C10.8807,22 12,20.8807 12,19.5 L12,17 L9.5,17 Z M19.5,12 C20.8807,12 22,13.1193 22,14.5 C22,15.8807 20.8807,17 19.5,17 C18.1193,17 17,15.8807 17,14.5 L17,12 L19.5,12 Z" fill="#ECB22E" fill-rule="nonzero"></path>
    </g>
</svg>
